<svg height="464pt" viewBox="-48 0 464 464" width="464pt" xmlns="http://www.w3.org/2000/svg"><path d="m316 52c0-22 18-40 40-40h-304c-22 0-40 18-40 40s18 40 40 40h44l-12 372h48l-12-372h236" fill="#fff"/><path d="m120 92h236v360h-236zm0 0" fill="#adf9d2"/><path d="m12 52v360c0 22 18 40 40 40h44v-360h-44c-22 0-40-18-40-40zm0 0" fill="#009f96"/><path d="m356 80h-223.199219c-6.402343 0-12.402343 4.800781-12.800781 11.199219-.398438 6.800781 5.199219 12.800781 12 12.800781h212v336h-212c-6.800781 0-12 5.199219-12 12s5.199219 12 12 12h224c6.800781 0 12-5.199219 12-12v-360c0-6.800781-5.199219-12-12-12zm0 0" fill="#444b54"/><path d="m52 440c-15.601562 0-28-12.398438-28-28v-316.398438c8 5.199219 17.601562 8.398438 28 8.398438h31.199219c6.402343 0 12.402343-4.800781 12.800781-11.199219.398438-6.800781-5.199219-12.800781-12-12.800781h-31.199219c-14.402343 0-26.800781-10-28.800781-24.398438-2-16.800781 11.199219-31.601562 28-31.601562h260c-4.800781 7.601562-8 16.800781-8 26.800781 0 6.800781 4.800781 12.800781 11.601562 13.199219 6.796876.398438 12.398438-5.199219 12.398438-12 0-15.601562 12.398438-28 28-28 6 0 11.601562-4.800781 12-11.199219.398438-7.199219-5.199219-12.800781-12-12.800781h-304c-28.800781 0-52 23.199219-52 52v360c0 28.800781 23.199219 52 52 52h32c6.800781 0 12-5.199219 12-12s-5.199219-12-12-12zm0 0" fill="#444b54"/><path d="m180 292h96c6.800781 0 12-5.199219 12-12v-56c0-6.800781-5.199219-12-12-12h-96c-6.800781 0-12 5.199219-12 12v56c0 6.800781 5.199219 12 12 12zm0 0" fill="#fff"/></svg>