<svg height="496pt" viewBox="0 -48 496.00022 496" width="496pt" xmlns="http://www.w3.org/2000/svg"><path d="m317.027344 274.3125c-.207032 0-.414063-.015625-.628906-.050781-2.183594-.34375-3.671876-2.398438-3.324219-4.578125.707031-4.449219 3.441406-15.691406 13.621093-24.035156 13.765626-11.28125 31.703126-8.042969 35.152344-7.277344 2.15625.476562 3.519532 2.613281 3.042969 4.769531-.480469 2.15625-2.621094 3.5-4.765625 3.042969-1.738281-.382813-17.222656-3.46875-28.355469 5.652344-8.058593 6.601562-10.234375 15.554687-10.792969 19.097656-.3125 1.980468-2.015624 3.378906-3.949218 3.378906zm0 0" fill="#239198"/><path d="m336.984375 267.132812c-2.191406 0-3.976563-1.765624-4-3.957031-.039063-3.882812 2.054687-8.0625 5.742187-11.472656 5.875-5.421875 14.464844-8.066406 23.515626-7.253906 2.207031.199219 3.824218 2.140625 3.628906 4.339843-.199219 2.203126-2.085938 3.890626-4.339844 3.628907-6.730469-.621094-13.222656 1.332031-17.375 5.164062-2.359375 2.179688-3.183594 4.273438-3.171875 5.511719.023437 2.210938-1.753906 4.019531-3.957031 4.042969-.015625-.003907-.03125-.003907-.042969-.003907zm0 0" fill="#239198"/><path d="m485.023438 300.851562-33.398438-47.890624h-83.277344l-33.398437 47.890624c-28.277344 40.578126 1.359375 95.527344 51.496093 95.527344h47.019532c50.199218 0 79.839844-54.949218 51.558594-95.527344zm0 0" fill="#68dbaf"/><path d="m452.714844 252.972656h-86.316406c-2.847657 0-5.15625-3.886718-5.15625-8.679687 0-4.796875 2.308593-8.679688 5.15625-8.679688h86.316406c2.847656 0 5.15625 3.886719 5.15625 8.679688s-2.308594 8.679687-5.15625 8.679687zm0 0" fill="#beeedd"/><path d="m367.765625 235.589844h83.859375l9.078125-39.65625c.78125-3.359375-2.527344-5.859375-4.734375-3.601563l-23.738281 24.769531c-1.292969 1.34375-3.304688 1.035157-4.277344-.671874l-16.085937-27.761719c-1.101563-1.953125-3.503907-2.011719-4.667969-.125l-15.433594 24.101562c-.972656 1.464844-2.726563 1.832031-4.023437.730469l-25.941407-22.511719c-2.269531-1.949219-5.320312.671875-4.476562 3.90625zm0 0" fill="#239198"/><path d="m443.035156 326.242188c0-18.324219-14.796875-33.179688-33.050781-33.179688s-33.050781 14.855469-33.050781 33.179688c0 18.328124 14.796875 33.183593 33.050781 33.183593s33.050781-14.855469 33.050781-33.183593zm0 0" fill="#fff"/><path d="m408.132812 348.6875v-5.523438c-3.160156-.054687-6.429687-1.039062-8.332031-2.402343l1.308594-3.664063c1.960937 1.308594 4.792969 2.351563 7.84375 2.351563 3.867187 0 6.480469-2.242188 6.480469-5.359375 0-3.007813-2.125-4.871094-6.15625-6.507813-5.558594-2.191406-8.988282-4.707031-8.988282-9.460937 0-4.535156 3.210938-7.984375 8.222657-8.804688v-5.523437h3.375v5.304687c3.269531.105469 5.5.984375 7.082031 1.914063l-1.359375 3.609375c-1.144531-.65625-3.378906-1.859375-6.867187-1.859375-4.191407 0-5.773438 2.515625-5.773438 4.703125 0 2.84375 2.015625 4.261718 6.753906 6.230468 5.609375 2.296876 8.445313 5.140626 8.445313 10.007813 0 4.320313-2.996094 8.363281-8.609375 9.296875v5.6875zm0 0" fill="#239198"/><path d="m306.164062 326.109375h-302.164062c-2.207031 0-4-1.789063-4-4v-318.109375c0-2.210938 1.792969-4 4-4s4 1.789062 4 4v314.109375h298.164062c2.210938 0 4 1.785156 4 4 0 2.210937-1.789062 4-4 4zm0 0" fill="#1a7bbf"/><g fill="#87bee7"><path d="m28.398438 241.25h28.679687v57.9375h-28.679687zm0 0"/><path d="m171.503906 167.695312h28.679688v131.421876h-28.679688zm0 0"/><path d="m241.40625 128.8125v171.289062h28.09375l.589844.203126v-171.492188zm0 0"/><path d="m99.179688 205.457031h30.21875v93.589844h-30.21875zm0 0"/></g><path d="m50.929688 182.804688c-1.109376 0-2.210938-.457032-3-1.351563-1.464844-1.652344-1.308594-4.179687.34375-5.644531l50.566406-44.722656c1.660156-1.464844 4.179687-1.304688 5.648437.347656 1.464844 1.652344 1.308594 4.179687-.34375 5.640625l-50.566406 44.726562c-.761719.671875-1.707031 1.003907-2.648437 1.003907zm0 0" fill="#1072b5"/><path d="m170.34375 133.164062h-40.941406c-2.207032 0-4-1.789062-4-4 0-2.210937 1.792968-4 4-4h40.941406c2.207031 0 4 1.789063 4 4 0 2.210938-1.792969 4-4 4zm0 0" fill="#1072b5"/><path d="m201.871094 123.949219c-1.183594 0-2.359375-.523438-3.148438-1.53125-1.363281-1.742188-1.058594-4.253907.675782-5.617188l48.132812-37.753906c1.742188-1.359375 4.253906-1.066406 5.617188.679687 1.363281 1.742188 1.058593 4.253907-.679688 5.617188l-48.132812 37.753906c-.730469.574219-1.601563.851563-2.464844.851563zm0 0" fill="#1072b5"/><path d="m62.644531 184.191406c0-9.949218-8.035156-18.015625-17.949219-18.015625-9.910156 0-17.949218 8.066407-17.949218 18.015625 0 9.949219 8.039062 18.015625 17.949218 18.015625 9.914063 0 17.949219-8.066406 17.949219-18.015625zm0 0" fill="#8bdfff"/><path d="m132.863281 131.734375c0-9.949219-8.035156-18.015625-17.949219-18.015625-9.910156 0-17.945312 8.066406-17.945312 18.015625 0 9.953125 8.035156 18.019531 17.945312 18.019531 9.914063 0 17.949219-8.066406 17.949219-18.019531zm0 0" fill="#8bdfff"/><path d="m204.324219 127.640625c0-9.949219-8.035157-18.015625-17.949219-18.015625-9.910156 0-17.945312 8.066406-17.945312 18.015625s8.035156 18.015625 17.945312 18.015625c9.914062 0 17.949219-8.066406 17.949219-18.015625zm0 0" fill="#8bdfff"/><path d="m273.28125 73.390625c0-9.949219-8.035156-18.015625-17.949219-18.015625-9.914062 0-17.949219 8.066406-17.949219 18.015625 0 9.953125 8.035157 18.015625 17.949219 18.015625 9.914063 0 17.949219-8.0625 17.949219-18.015625zm0 0" fill="#8bdfff"/><path d="m66.394531 366.132812-16.066406 8.84375 16.066406 8.847657 8.789063 16.175781 8.785156-16.175781 16.066406-8.847657-16.066406-8.84375-8.785156-16.175781zm0 0" fill="#1a7bbf"/><path d="m387.386719 40.582031-16.066407 8.84375 16.066407 8.847657 8.789062 16.175781 8.789063-16.175781 16.0625-8.847657-16.0625-8.84375-8.789063-16.179687zm0 0" fill="#d94635"/></svg>