<?xml version="1.0" encoding="iso-8859-1"?>
<!-- Generator: Adobe Illustrator 19.0.0, SVG Export Plug-In . SVG Version: 6.00 Build 0)  -->
<svg version="1.1" id="Capa_1" xmlns="http://www.w3.org/2000/svg" xmlns:xlink="http://www.w3.org/1999/xlink" x="0px" y="0px"
	 viewBox="0 0 512.001 512.001" style="enable-background:new 0 0 512.001 512.001;" xml:space="preserve">
<path style="fill:#576574;" d="M378.531,64.251c-8.239,0-233.3,0-245.06,0c-7.119,0-12.89,5.771-12.89,12.89v20.302
	c11.39,0,260.688,0,270.84,0V77.14C391.42,70.021,385.649,64.251,378.531,64.251z"/>
<path style="fill:#3E4B5A;" d="M154.075,64.251c-11.227,0-18.704,0-20.605,0c-7.119,0-12.89,5.771-12.89,12.89v20.302
	c1.762,0,9.222,0,20.605,0V77.14C141.186,70.021,146.956,64.251,154.075,64.251z"/>
<path style="fill:#E4EAF8;" d="M499.111,94.351c-4.554,0-459.491,0-486.221,0c-7.119,0-12.89,5.771-12.89,12.89v384
	c0,7.119,5.771,12.889,12.89,12.889h486.221c7.119,0,12.89-5.771,12.89-12.889v-384C512,100.122,506.229,94.351,499.111,94.351z"/>
<path style="fill:#D8DCE5;" d="M20.605,491.241v-384c0-7.119,5.771-12.889,12.89-12.889c-10.698,0-17.879,0-20.605,0
	C5.771,94.351,0,100.122,0,107.241v384c0,7.119,5.771,12.889,12.89,12.889h20.605C26.376,504.13,20.605,498.36,20.605,491.241z"/>
<path style="fill:#FECA57;" d="M285.001,7.872h-58.002c-6.409,0-11.604,5.195-11.604,11.604v101.152h81.21V19.477
	C296.606,13.068,291.41,7.872,285.001,7.872z"/>
<path style="fill:#F4B537;" d="M247.604,7.872h-20.605c-6.409,0-11.604,5.196-11.604,11.604v101.152H236V19.477
	C236,13.068,241.195,7.872,247.604,7.872z"/>
<path style="fill:#D8DCE5;" d="M305.293,128.356h-98.585c-4.267,0-7.727-3.459-7.727-7.727c0-4.267,3.459-7.727,7.727-7.727h98.585
	c4.267,0,7.727,3.459,7.727,7.727C313.019,124.896,309.56,128.356,305.293,128.356z"/>
<path style="fill:#54A0FF;" d="M268.131,162.255H66.264c-8.133,0-14.788,6.655-14.788,14.788v262.053
	c0,8.133,6.655,14.788,14.788,14.788H268.13c8.133,0,14.788-6.654,14.788-14.788V177.042
	C282.918,168.909,276.264,162.255,268.131,162.255z"/>
<path style="fill:#338DEF;" d="M67.96,439.096V177.042c0-8.133,6.655-14.788,14.788-14.788H66.264
	c-8.133,0-14.788,6.655-14.788,14.788v262.054c0,8.133,6.655,14.788,14.788,14.788h16.484
	C74.615,453.884,67.96,447.229,67.96,439.096z"/>
<path style="fill:#576574;" d="M166.632,185.048c-33.089,0-59.911,26.823-59.911,59.911v23.708c4.004-3.712,9.7-5.729,15.261-4.986
	v-2.985c0-2.373,2.026-4.248,4.376-4.07c23.163,1.664,46.737-5.697,64.561-17.34c1.664-1.087,3.867-0.817,5.22,0.636
	c15.238,16.38,15.146,15.746,15.146,17.884v5.862c6.095-0.914,11.502,0.97,15.258,4.462v-23.172
	C226.543,211.87,199.721,185.048,166.632,185.048z"/>
<path style="fill:#3E4B5A;" d="M122.802,244.959c0-30.36,22.587-55.428,51.871-59.359c-2.632-0.353-5.312-0.552-8.04-0.552
	c-33.089,0-59.911,26.822-59.911,59.911v23.708c4.004-3.712,9.7-5.729,15.261-4.986v-2.985c0-0.922,0.308-1.766,0.82-2.446v-13.291
	H122.802z"/>
<g>
	<path style="fill:#F2BB88;" d="M210.491,261.288v32.819c0,0.356-0.019,0.707-0.027,1.062c11.614,1.759,20.71-6.633,20.71-16.939
		C231.174,267.903,222.07,259.552,210.491,261.288z"/>
	<path style="fill:#F2BB88;" d="M122.776,294.107v-32.806c-10.111-1.35-20.683,6.41-20.683,16.929
		c0,10.293,9.076,18.699,20.709,16.939C122.793,294.814,122.776,294.461,122.776,294.107z"/>
</g>
<g>
	<path style="fill:#E3A76F;" d="M225.021,265.111c-3.711-3.079-8.818-4.68-14.53-3.824v32.819c0,0.356-0.018,0.707-0.027,1.062
		c5.729,0.867,10.842-0.738,14.557-3.822L225.021,265.111L225.021,265.111z"/>
	<path style="fill:#E3A76F;" d="M122.776,291.349c-3.817-3.17-6.154-7.9-6.154-13.12c0-5.078,2.468-9.509,6.154-12.586V261.3
		c-10.111-1.35-20.683,6.41-20.683,16.929c0,10.292,9.076,18.699,20.709,16.939c-0.009-0.354-0.026-0.707-0.026-1.061V291.349z"/>
</g>
<path style="fill:#F2BB88;" d="M142.129,330.224v23.513l25.034,30.901l25.034-30.901v-24.176
	C176.56,340.347,156.328,339.297,142.129,330.224z"/>
<path style="fill:#E3A76F;" d="M158.161,336.498c-5.968-1.107-11.352-3.284-16.033-6.274v23.513l16.033,19.79V336.498z"/>
<path style="fill:#E4EAF8;" d="M258.424,377.797l-66.227-25.648l-25.034,30.901l-25.035-30.901l-66.157,25.648
	c0,0-24.495,10.07-24.495,37.994v25.367c0.001,8.133,6.655,14.787,14.788,14.787H268.13c8.133,0,14.788-6.654,14.788-14.788v-25.366
	C282.918,387.867,258.424,377.797,258.424,377.797z"/>
<path style="fill:#D8DCE5;" d="M67.509,455.944v-47.368c0-19.158,11.529-29.91,18.768-34.774l-10.306,3.995
	c0,0-24.495,10.07-24.495,37.994v25.365C51.476,448.357,56.786,455.944,67.509,455.944z"/>
<path style="fill:#F2D1A5;" d="M196.139,238.335c-1.352-1.453-3.556-1.724-5.22-0.636c-17.824,11.644-41.397,19.004-64.561,17.34
	c-2.349-0.178-4.376,1.697-4.376,4.07v35.792c0,23.004,18.024,44.014,45.288,44.014c24.27,0,44.014-19.745,44.014-44.014V256.22
	C211.285,254.081,211.377,254.714,196.139,238.335z"/>
<path style="fill:#F2BB88;" d="M138.015,294.9v-39.769c-3.878,0.206-7.773,0.186-11.657-0.093c-2.349-0.178-4.376,1.696-4.376,4.07
	V294.9c0,27.589,24.85,48.101,52.667,43.383C153.883,334.761,138.015,316.654,138.015,294.9z"/>
<g>
	<path style="fill:#D8DCE5;" d="M197.39,398.928l18.72-37.518l-23.913-9.261l-25.034,30.901l24.407,17.334
		C193.546,401.788,196.307,401.097,197.39,398.928z"/>
	<path style="fill:#D8DCE5;" d="M136.971,398.928l-18.72-37.518l23.913-9.261l25.034,30.901l-24.407,17.334
		C140.814,401.788,138.053,401.097,136.971,398.928z"/>
</g>
<path style="fill:#EE5253;" d="M167.195,383.072v-0.021l-0.015,0.011l-0.015-0.011v0.021l-17.752,12.608l8.391,12.629
	c6.767,0,11.985,0,18.752,0l8.391-12.629L167.195,383.072z"/>
<path style="fill:#D83941;" d="M176.063,389.37l-8.868-6.299v-0.021l-0.015,0.011l-0.015-0.011v0.021l-17.752,12.608l8.391,12.629
	c6.529,0,11.6,0,17.767,0l-6.89-10.37c-0.837-1.259-0.522-2.955,0.71-3.831L176.063,389.37z"/>
<path style="fill:#FF6B6B;" d="M157.804,408.309l-6.452,47.635h31.657l-6.452-47.635
	C169.787,408.309,164.573,408.309,157.804,408.309z"/>
<path style="fill:#EE5253;" d="M157.804,408.309l-6.452,47.635h17.767l6.452-47.635
	C169.377,408.309,164.358,408.309,157.804,408.309z"/>
<g>
	<path style="fill:#D8DCE5;" d="M100.893,455.944v-30.555c0-4.267-3.459-7.727-7.727-7.727c-4.267,0-7.727,3.459-7.727,7.727v30.555
		H100.893z"/>
	<path style="fill:#D8DCE5;" d="M248.957,455.944v-30.555c0-4.267-3.459-7.727-7.727-7.727c-4.267,0-7.727,3.459-7.727,7.727v30.555
		H248.957z"/>
	<path style="fill:#D8DCE5;" d="M458.545,260.388H334.493c-4.267,0-7.727-3.459-7.727-7.727c0-4.267,3.459-7.727,7.727-7.727
		h124.053c4.267,0,7.727,3.459,7.727,7.727C466.272,256.928,462.813,260.388,458.545,260.388z"/>
	<path style="fill:#D8DCE5;" d="M458.545,301.072H334.493c-4.267,0-7.727-3.459-7.727-7.727c0-4.267,3.459-7.727,7.727-7.727
		h124.053c4.267,0,7.727,3.459,7.727,7.727C466.272,297.612,462.813,301.072,458.545,301.072z"/>
	<path style="fill:#D8DCE5;" d="M458.545,341.756H334.493c-4.267,0-7.727-3.459-7.727-7.727s3.459-7.727,7.727-7.727h124.053
		c4.267,0,7.727,3.459,7.727,7.727S462.813,341.756,458.545,341.756z"/>
	<path style="fill:#D8DCE5;" d="M458.545,382.439H334.493c-4.267,0-7.727-3.459-7.727-7.727s3.459-7.727,7.727-7.727h124.053
		c4.267,0,7.727,3.46,7.727,7.727S462.813,382.439,458.545,382.439z"/>
	<path style="fill:#D8DCE5;" d="M458.545,423.124H334.493c-4.267,0-7.727-3.459-7.727-7.727c0-4.267,3.459-7.727,7.727-7.727
		h124.053c4.267,0,7.727,3.459,7.727,7.727C466.272,419.664,462.813,423.124,458.545,423.124z"/>
</g>
<path style="fill:#54A0FF;" d="M447.119,179.007H345.918c-6.31,0-11.426,5.115-11.426,11.426v7.249
	c0,6.31,5.115,11.426,11.426,11.426h101.201c6.31,0,11.426-5.115,11.426-11.426v-7.249
	C458.545,184.123,453.43,179.007,447.119,179.007z"/>
<path style="fill:#338DEF;" d="M447.12,192.42H345.918c-4.625,0-8.599-2.754-10.397-6.706c-0.655,1.44-1.029,3.034-1.029,4.719
	v7.249c0,6.31,5.116,11.426,11.426,11.426H447.12c6.31,0,11.426-5.116,11.426-11.426v-7.249c0-1.685-0.374-3.279-1.029-4.719
	C455.719,189.666,451.745,192.42,447.12,192.42z"/>
<g>
</g>
<g>
</g>
<g>
</g>
<g>
</g>
<g>
</g>
<g>
</g>
<g>
</g>
<g>
</g>
<g>
</g>
<g>
</g>
<g>
</g>
<g>
</g>
<g>
</g>
<g>
</g>
<g>
</g>
</svg>
